<svg xmlns="http://www.w3.org/2000/svg" width="30" height="32" viewBox="0 0 30 32"><path fill="#fff" d="M4.06 32l11.23-.02a4 4 0 0 0 4.04-3.96l-.03-.5-.34-3.15-.01-.04a5.23 5.23 0 0 0-5.22-4.47H5.58a5.23 5.23 0 0 0-5.22 4.52v.03l-.33 3.17-.03.46A4 4 0 0 0 4.06 32zm1.52-9.23h8.15c1.15 0 2.12.83 2.27 1.95l.35 3.11v.04l.01.15c0 .56-.48 1.05-1.08 1.05l-11.23.02c-.6 0-1.08-.49-1.08-1.05l.01-.13v-.04l.32-3.13a2.28 2.28 0 0 1 2.28-1.97zm4.1-5.14a5.97 5.97 0 0 0 6.04-5.9c0-3.27-2.7-5.91-6.04-5.91a5.97 5.97 0 0 0-6.03 5.9c0 3.27 2.7 5.91 6.03 5.91zm0-8.9c1.7 0 3.06 1.34 3.07 3 0 1.65-1.37 3-3.07 3a3.04 3.04 0 0 1-3.06-3c0-1.66 1.37-3 3.06-3zm10.35-1.67h2.76v2.7c0 .8.66 1.46 1.48 1.46s1.49-.66 1.49-1.46v-2.7h2.75c.82 0 1.49-.65 1.49-1.45 0-.8-.67-1.46-1.49-1.46h-2.75v-2.7c0-.8-.67-1.45-1.49-1.45S22.8.65 22.8 1.46v2.7h-2.76c-.82 0-1.49.64-1.49 1.45 0 .8.67 1.45 1.49 1.45z"/></svg>