<svg xmlns="http://www.w3.org/2000/svg" width="32" height="33" viewBox="0 0 32 33"><path fill="#fff" d="M21.58 24.1s.42 4.25.42 4.43c0 2.4-1.81 4.42-4.14 4.45h-.02L5.15 33A4.3 4.3 0 0 1 1 28.57c0-.16.39-4.43.39-4.43a5.65 5.65 0 0 1 5.5-5.13h.44c.7 0 1.27.6 1.27 1.35 0 .74-.58 1.35-1.27 1.35h-.45a3.06 3.06 0 0 0-2.96 2.74l-.38 4.12c0 .47.17.9.48 1.23.29.3.68.5 1.13.5l12.7-.02a1.7 1.7 0 0 0 1.6-1.75l-.4-4.1a3.05 3.05 0 0 0-2.97-2.72h-.37c-.7 0-1.27-.61-1.27-1.35 0-.76.57-1.35 1.27-1.35h.37a5.66 5.66 0 0 1 5.5 5.1zm-8.91.23v2.91c0 .65-.51 1.18-1.15 1.18-.63 0-1.16-.53-1.16-1.18v-2.91c0-.67.53-1.19 1.16-1.19.64 0 1.15.52 1.15 1.19zm-.34-4.24a1.22 1.22 0 0 1 0 1.69 1.13 1.13 0 0 1-1.63 0 1.22 1.22 0 0 1 0-1.7 1.19 1.19 0 0 1 1.63 0zm-6.68-8.36c0-3.27 2.7-5.91 6.03-5.91a5.97 5.97 0 0 1 6.04 5.9c0 3.27-2.7 5.91-6.04 5.91a5.97 5.97 0 0 1-6.03-5.9zm2.97 0c0 1.65 1.37 3 3.06 3 1.7 0 3.06-1.35 3.07-3 0-1.66-1.37-3-3.07-3a3.04 3.04 0 0 0-3.06 3zM20.54 5.6c0-.8.67-1.46 1.49-1.46h2.76v-2.7c0-.8.66-1.45 1.48-1.45s1.49.65 1.49 1.45v2.7h2.75c.82 0 1.49.65 1.49 1.46 0 .8-.67 1.45-1.49 1.45h-2.75v2.7c0 .8-.67 1.46-1.49 1.46s-1.48-.66-1.48-1.46v-2.7h-2.76c-.82 0-1.49-.65-1.49-1.45z"/></svg>