<svg xmlns="http://www.w3.org/2000/svg" width="32" height="32" viewBox="0 0 32 32"><path fill="#fff" d="M6 14h12a1 1 0 0 0 0-2H6a1 1 0 0 0 0 2zm0 4h12a1 1 0 0 0 0-2H6a1 1 0 0 0 0 2zm18-2V7a3 3 0 0 0-3-3h-4V2a2 2 0 0 0-2-2H9a2 2 0 0 0-2 2v2H3a3 3 0 0 0-3 3v20a3 3 0 0 0 3 3h15.72A8 8 0 1 0 24 16zM9 2h6v2H9zM2 27V7a1 1 0 0 1 1-1h3v1c0 1.1.9 2 2 2h8a2 2 0 0 0 2-2V6h3a1 1 0 0 1 1 1v9.26A8.04 8.04 0 0 0 17.07 20H6a1 1 0 0 0 0 2h10.26a7.89 7.89 0 0 0 .82 6H3a1 1 0 0 1-1-1zm22 3.22a6.23 6.23 0 1 1 .02-12.46A6.23 6.23 0 0 1 24 30.22zM26 23h-1v-1a1 1 0 0 0-2 0v1h-1a1 1 0 0 0 0 2h1v1a1 1 0 0 0 2 0v-1h1a1 1 0 0 0 0-2z"/></svg>