<svg xmlns="http://www.w3.org/2000/svg" width="24.62" height="33.83" viewBox="0 0 24.62 33.83"><path fill="#fff" d="M1.3 1.25v30.42c.04.33.18.58.4.67.23.12.53.09.74-.07l3.44-2.5 2.76 2.46c.26.23.69.23.95 0l2.72-2.42 2.7 2.42c.27.23.7.23.97 0l2.76-2.45 3.43 2.5c.22.16.53.18.77.05s.39-.4.37-.68V1.23a.75.75 0 0 0-.35-.71.73.73 0 0 0-.8.04l-3.42 2.5L15.98.61a.74.74 0 0 0-.96 0L12.3 3.03 9.59.6a.73.73 0 0 0-.95 0L5.88 3.06 2.44.56a.7.7 0 0 0-.46-.14.74.74 0 0 0-.67.83zm7.8.83l2.73 2.43c.26.23.7.23.95 0l2.72-2.43 2.72 2.43c.24.21.63.23.89.04l2.78-2.02V30.3l-2.78-2.02a.72.72 0 0 0-.9.04l-2.71 2.42-2.72-2.42a.73.73 0 0 0-.95 0L9.1 30.75 6.4 28.33a.71.71 0 0 0-.53-.18.74.74 0 0 0-.37.14L2.73 30.3V2.53L5.5 4.55c.26.2.66.17.9-.04zm-1.12 8.3c-.37.02-.64.36-.64.71 0 .38.34.73.7.71h.72v4.27h-.71a.73.73 0 0 0-.71.7c0 .39.34.73.7.72h.72v1.42h-.71a.71.71 0 0 0 0 1.42h.7v1.43c0 .37.35.7.72.7.38 0 .7-.33.7-.7v-1.43h4.27a.71.71 0 0 0 0-1.42h-4.26V17.5h3.55a3.57 3.57 0 0 0 3.54-3.55 3.57 3.57 0 0 0-3.54-3.56zm2.2 1.42h3.55c1.13 0 2.13.96 2.13 2.14 0 1.17-1 2.13-2.13 2.13h-3.55z"/><path fill="none" stroke="#fff" stroke-miterlimit="50" d="M1.3 1.25v30.42c.04.33.18.58.4.67.23.12.53.09.74-.07l3.44-2.5 2.76 2.46c.26.23.69.23.95 0l2.72-2.42 2.7 2.42c.27.23.7.23.97 0l2.76-2.45 3.43 2.5c.22.16.53.18.77.05s.39-.4.37-.68V1.23a.75.75 0 0 0-.35-.71.73.73 0 0 0-.8.04l-3.42 2.5L15.98.61a.74.74 0 0 0-.96 0L12.3 3.03 9.59.6a.73.73 0 0 0-.95 0L5.88 3.06 2.44.56a.7.7 0 0 0-.46-.14.74.74 0 0 0-.67.83zm7.8.83l2.73 2.43c.26.23.7.23.95 0l2.72-2.43 2.72 2.43c.24.21.63.23.89.04l2.78-2.02V30.3l-2.78-2.02a.72.72 0 0 0-.9.04l-2.71 2.42-2.72-2.42a.73.73 0 0 0-.95 0L9.1 30.75 6.4 28.33a.71.71 0 0 0-.53-.18.74.74 0 0 0-.37.14L2.73 30.3V2.53L5.5 4.55c.26.2.66.17.9-.04zm-1.12 8.3c-.37.02-.64.36-.64.71 0 .38.34.73.7.71h.72v4.27h-.71a.73.73 0 0 0-.71.7c0 .39.34.73.7.72h.72v1.42h-.71a.71.71 0 0 0 0 1.42h.7v1.43c0 .37.35.7.72.7.38 0 .7-.33.7-.7v-1.43h4.27a.71.71 0 0 0 0-1.42h-4.26V17.5h3.55a3.57 3.57 0 0 0 3.54-3.55 3.57 3.57 0 0 0-3.54-3.56zm2.2 1.42h3.55c1.13 0 2.13.96 2.13 2.14 0 1.17-1 2.13-2.13 2.13h-3.55z"/></svg>